<?xml version="1.0" encoding="UTF-8"?>
<svg width="179px" height="43px" viewBox="0 0 179 43" version="1.1" xmlns="http://www.w3.org/2000/svg" xmlns:xlink="http://www.w3.org/1999/xlink">
    <title>Лого_Школа_молодого_предпринимателя</title>
    <g id="Page-1" stroke="none" stroke-width="1" fill="none" fill-rule="evenodd">
        <g id="Лого_Школа_молодого_предпринимателя" transform="translate(0.6664, 0.9885)">
            <path d="M0.165133217,11.2245179 C-0.204323266,12.1101421 0.0438327015,13.2472966 0.933110681,14.5903466 C1.81759769,15.9261964 3.30292336,17.4117701 5.28692519,18.9539921 C9.25206202,22.0362535 15.1592571,25.3065479 22.0688357,28.0262655 C28.978466,30.7460333 35.5628789,32.3927961 40.6183153,32.8611853 C43.1480997,33.0955053 45.2791106,33.0335384 46.8713639,32.6725251 C48.4721401,32.3097555 49.4654583,31.6612361 49.8347887,30.7756369 C50.2043774,29.8897869 49.956177,28.752808 49.066943,27.4096075 C48.1823578,26.0739333 46.6970296,24.5882592 44.7129761,23.0460372 C40.7479684,19.963801 34.8407474,16.6934815 27.9311688,13.9737388 C21.0215386,11.253996 14.4370224,9.60730848 9.38148264,9.138819 C6.85193067,8.90442374 4.72091982,8.9665662 3.12861488,9.32747922 C1.52767846,9.69032399 0.534592799,10.3388937 0.165133217,11.2245179 Z" id="Path" stroke="#000000" stroke-width="0.8"></path>
            <circle id="Oval" fill="#ED5338" fill-rule="nonzero" cx="34" cy="32" r="2"></circle>
            <line x1="11.5" y1="1" x2="11.5" y2="9" id="Path" stroke="#000000" stroke-width="0.8"></line>
            <line x1="33.5" y1="0.380952381" x2="33.5" y2="15.6190476" id="Path" stroke="#000000" stroke-width="0.8"></line>
            <circle id="Oval" fill="#ED5338" fill-rule="nonzero" cx="12" cy="9" r="1"></circle>
            <line x1="45.6111111" y1="8.5" x2="39" y2="8.5" id="Path" stroke="#000000" stroke-width="0.8"></line>
            <line x1="12" y1="34.5" x2="4" y2="34.5" id="Path" stroke="#000000" stroke-width="0.8"></line>
            <line x1="38.5" y1="0" x2="38.5" y2="18" id="Path" stroke="#000000" stroke-width="0.8"></line>
            <line x1="11.5" y1="23" x2="11.5" y2="42" id="Path" stroke="#000000" stroke-width="0.8"></line>
            <line x1="17.5" y1="26" x2="17.5" y2="42" id="Path" stroke="#000000" stroke-width="0.8"></line>
            <line x1="38.5" y1="34" x2="38.5" y2="42" id="Path" stroke="#000000" stroke-width="0.8"></line>
            <path d="M25.803734,16.089191 C25.9075741,15.9702697 26.0924572,15.9702697 26.1962973,16.089191 L26.5453455,16.4889693 C26.6283174,16.5839161 26.767105,16.6059116 26.8753292,16.5412527 L27.3307728,16.2688884 C27.4663036,16.1878705 27.642168,16.2450139 27.7042967,16.3902147 L27.9127286,16.8782759 C27.9620808,16.9941911 28.0875909,17.0580484 28.2103452,17.0299652 L28.727667,16.9116952 C28.8817362,16.8765223 29.0312961,16.9851975 29.0453252,17.1424483 L29.0926733,17.6710434 C29.1039466,17.7965785 29.2034027,17.8960596 29.3289127,17.907308 L29.8575079,17.9547062 C30.0148339,17.9688104 30.1235591,18.1183953 30.0882359,18.2723142 L29.9699909,18.7896861 C29.9419328,18.9125407 30.0058152,19.0379004 30.1218055,19.0873779 L30.6098166,19.2958098 C30.7551176,19.3578132 30.812236,19.5336525 30.7310678,19.6691833 L30.4587536,20.1246771 C30.3941197,20.2328512 30.4161654,20.3717891 30.5111121,20.4546858 L30.9109405,20.803734 C31.0296865,20.9075741 31.0296865,21.0924572 30.9109405,21.1962973 L30.5111121,21.5453455 C30.4161654,21.6282423 30.3941197,21.7671801 30.4587536,21.8753542 L30.7310678,22.330848 C30.812236,22.4663788 30.7551176,22.6422181 30.6098166,22.7042216 L30.1218055,22.9126534 C30.0058152,22.9621309 29.9419328,23.0874906 29.9699909,23.2103452 L30.0882359,23.7277171 C30.1235591,23.881636 30.0148339,24.0312209 29.8575079,24.0453252 L29.3289127,24.0927234 C29.2034027,24.1039717 29.1039466,24.2034528 29.0926733,24.3289879 L29.0453252,24.8575831 C29.0312961,25.0148339 28.8817362,25.123509 28.727667,25.0883361 L28.2103452,24.9700661 C28.0875909,24.9419829 27.9620808,25.0058402 27.9127286,25.1217554 L27.7042967,25.6098166 C27.642168,25.7551176 27.4663036,25.812236 27.3307728,25.7310678 L26.8753292,25.4587787 C26.767105,25.3941197 26.6283174,25.4161153 26.5453455,25.511062 L26.1962973,25.9109405 C26.0924572,26.0296865 25.9075741,26.0296865 25.803734,25.9109405 L25.4546858,25.511062 C25.3717891,25.4161153 25.2328512,25.3941197 25.1246771,25.4587787 L24.6691833,25.7310678 C24.5336525,25.812236 24.3578132,25.7551176 24.2958098,25.6098166 L24.0873779,25.1217554 C24.0379004,25.0058402 23.9125407,24.9419829 23.7896861,24.9700661 L23.2723142,25.0883361 C23.1183953,25.123509 22.9688104,25.0148339 22.9547062,24.8575831 L22.907308,24.3289879 C22.8960596,24.2034528 22.7965785,24.1039717 22.6710434,24.0927234 L22.1424483,24.0453252 C21.9851975,24.0312209 21.8765223,23.881636 21.9116952,23.7277171 L22.0299652,23.2103452 C22.0580484,23.0874906 21.9941911,22.9621309 21.8782759,22.9126534 L21.3902147,22.7042216 C21.2450139,22.6422181 21.1878705,22.4663788 21.2688884,22.330848 L21.5412527,21.8753542 C21.6059116,21.7671801 21.5839161,21.6282423 21.4889693,21.5453455 L21.089191,21.1962973 C20.9702697,21.0924572 20.9702697,20.9075741 21.089191,20.803734 L21.4889693,20.4546858 C21.5839161,20.3717891 21.6059116,20.2328512 21.5412527,20.1246771 L21.2688884,19.6691833 C21.1878705,19.5336525 21.2450139,19.3578132 21.3902147,19.2958098 L21.8782759,19.0873779 C21.9941911,19.0379004 22.0580484,18.9125407 22.0299652,18.7896861 L21.9116952,18.2723142 C21.8765223,18.1183953 21.9851975,17.9688104 22.1424483,17.9547062 L22.6710434,17.907308 C22.7965785,17.8960596 22.8960596,17.7965785 22.907308,17.6710434 L22.9547062,17.1424483 C22.9688104,16.9851975 23.1183953,16.8765223 23.2723142,16.9116952 L23.7896861,17.0299652 C23.9125407,17.0580484 24.0379004,16.9941911 24.0873779,16.8782759 L24.2958098,16.3902147 C24.3578132,16.2450139 24.5336525,16.1878705 24.6691833,16.2688884 L25.1246771,16.5412527 C25.2328512,16.6059116 25.3717891,16.5839161 25.4546858,16.4889693 L25.803734,16.089191 Z" id="Path" fill="#000000" fill-rule="nonzero"></path>
            <path d="M8.49998735,36 L8.52556558,36.3091636 C8.62097162,37.4630876 9.53677851,38.3789404 10.6907589,38.4743207 L11,38.4998735 L10.6907589,38.5254263 C9.53677851,38.6208066 8.62097162,39.5366594 8.52556558,40.6905834 L8.49998735,41 L8.47443442,40.6905834 C8.37902838,39.5366594 7.46319619,38.6208066 6.30921575,38.5254263 L6,38.4998735 L6.30921575,38.4743207 C7.46319619,38.3789404 8.37902838,37.4630876 8.47443442,36.3091636 L8.49998735,36 Z" id="Path" fill="#000000" fill-rule="nonzero"></path>
            <path d="M43.5001265,2 L43.5256793,2.30922556 C43.6210596,3.46319977 44.5369124,4.37900573 45.6908364,4.47443698 L46,4.49998988 L45.6908364,4.52556808 C44.5369124,4.62097403 43.6210596,5.53677999 43.5256793,6.69075926 L43.5001265,7 L43.4745737,6.69075926 C43.3791934,5.53677999 42.4633406,4.62097403 41.3094166,4.52556808 L41,4.49998988 L41.3094166,4.47443698 C42.4633406,4.37900573 43.3791934,3.46319977 43.4745737,2.30922556 L43.5001265,2 Z" id="Path" fill="#000000" fill-rule="nonzero"></path>
            <circle id="Oval" fill="#ED5338" fill-rule="nonzero" cx="39" cy="33" r="1"></circle>
            <path d="M58.5540305,40.4273944 L56.8745716,40.4273944 L56.8745716,36.0921262 L56.2800888,36.0921262 L56.2800888,40.4273944 L54.60063,40.4273944 L54.60063,36.0921262 L54,36.0921262 L54,41.0506507 L59.1549166,41.0506507 L59.1549166,36.0921262 L58.5540305,36.0921262 L58.5540305,40.4273944 Z M61.352787,38.5006086 L63.3488252,36.0921262 L62.6124451,36.0921262 L60.7260315,38.3303998 L60.7260315,36.0921262 L60.1254015,36.0921262 L60.1254015,41.0506507 L60.7260315,41.0506507 L60.7260315,38.6705365 L62.6769904,41.0506507 L63.4133705,41.0506507 L61.352787,38.5006086 Z M63.3244926,38.5713884 C63.3244926,39.2867709 63.5504012,39.8889617 64.0027307,40.3917236 C64.454804,40.8947664 65.0103548,41.1427769 65.6629796,41.1427769 C66.3153483,41.1427769 66.870899,40.8947664 67.3229724,40.3917236 C67.7817051,39.8889617 68.0078699,39.2867709 68.0078699,38.5713884 C68.0078699,37.8557251 67.7817051,37.2467934 67.3229724,36.7507724 C66.870899,36.2477296 66.3153483,36 65.6629796,36 C65.0103548,36 64.454804,36.2477296 64.0027307,36.7507724 C63.5504012,37.2467934 63.3244926,37.8557251 63.3244926,38.5713884 Z M67.4069837,38.5713884 C67.4069837,39.116843 67.238961,39.5701713 66.9031717,39.945698 C66.5737857,40.3139219 66.1603883,40.4981743 65.6629796,40.4981743 C65.1655709,40.4981743 64.7519174,40.3139219 64.4161281,39.945698 C64.0867421,39.5701713 63.9187193,39.116843 63.9187193,38.5713884 C63.9187193,38.0259339 64.0867421,37.5653029 64.4161281,37.1970789 C64.7519174,36.8215523 65.1655709,36.6375808 65.6629796,36.6375808 C66.1603883,36.6375808 66.5737857,36.8215523 66.9031717,37.1970789 C67.238961,37.5653029 67.4069837,38.0259339 67.4069837,38.5713884 Z M68.0772817,41.0506507 C68.9171392,41.1357551 69.5695079,40.7248385 69.5695079,38.9042225 L69.5695079,36.7153825 L71.3524441,36.7153825 L71.3524441,41.0506507 L71.9533302,41.0506507 L71.9533302,36.0921262 L68.9688779,36.0921262 L68.9688779,38.9042225 C68.9688779,40.1510158 68.6717645,40.5476079 68.0772817,40.4554817 L68.0772817,41.0506507 Z M76.5427069,41.0506507 L74.8565887,36.0921262 L74.1783506,36.0921262 L72.4922324,41.0506507 L73.1317945,41.0506507 L73.5001126,39.9383953 L75.5348267,39.9383953 L75.9031448,41.0506507 L76.5427069,41.0506507 Z M74.5141399,36.8782885 L75.3281281,39.3221608 L73.7068113,39.3221608 L74.5141399,36.8782885 Z M82.2439535,36.0921262 L80.8098694,38.7129482 L79.3693819,36.0921262 L78.6908877,36.0921262 L78.6908877,41.0506507 L79.2917738,41.0506507 L79.2917738,37.1830353 L80.7711934,39.8746372 L80.8485453,39.8746372 L82.3279649,37.1757326 L82.3279649,41.0506507 L82.9221916,41.0506507 L82.9221916,36.0921262 L82.2439535,36.0921262 Z M83.6501193,38.5713884 C83.6501193,39.2867709 83.876284,39.8889617 84.3283573,40.3917236 C84.7806868,40.8947664 85.3362375,41.1427769 85.9886062,41.1427769 C86.640975,41.1427769 87.1965257,40.8947664 87.6488552,40.3917236 C88.1073318,39.8889617 88.3334965,39.2867709 88.3334965,38.5713884 C88.3334965,37.8557251 88.1073318,37.2467934 87.6488552,36.7507724 C87.1965257,36.2477296 86.640975,36 85.9886062,36 C85.3362375,36 84.7806868,36.2477296 84.3283573,36.7507724 C83.876284,37.2467934 83.6501193,37.8557251 83.6501193,38.5713884 Z M87.7328665,38.5713884 C87.7328665,39.116843 87.5648438,39.5701713 87.2287983,39.945698 C86.8994123,40.3139219 86.486015,40.4981743 85.9886062,40.4981743 C85.4911975,40.4981743 85.0778002,40.3139219 84.7417547,39.945698 C84.4123687,39.5701713 84.244346,39.116843 84.244346,38.5713884 C84.244346,38.0259339 84.4123687,37.5653029 84.7417547,37.1970789 C85.0778002,36.8215523 85.4911975,36.6375808 85.9886062,36.6375808 C86.486015,36.6375808 86.8994123,36.8215523 87.2287983,37.1970789 C87.5648438,37.5653029 87.7328665,38.0259339 87.7328665,38.5713884 Z M88.4031645,41.0506507 C89.2427658,41.1357551 89.8951345,40.7248385 89.8951345,38.9042225 L89.8951345,36.7153825 L91.6780707,36.7153825 L91.6780707,41.0506507 L92.2789569,41.0506507 L92.2789569,36.0921262 L89.2945045,36.0921262 L89.2945045,38.9042225 C89.2945045,40.1510158 88.9973912,40.5476079 88.4031645,40.4554817 L88.4031645,41.0506507 Z M93.0117511,38.5713884 C93.0117511,39.2867709 93.2379158,39.8889617 93.6899892,40.3917236 C94.1423186,40.8947664 94.6978694,41.1427769 95.3502381,41.1427769 C96.0026068,41.1427769 96.5581575,40.8947664 97.010487,40.3917236 C97.4692197,39.8889617 97.6951283,39.2867709 97.6951283,38.5713884 C97.6951283,37.8557251 97.4692197,37.2467934 97.010487,36.7507724 C96.5581575,36.2477296 96.0026068,36 95.3502381,36 C94.6978694,36 94.1423186,36.2477296 93.6899892,36.7507724 C93.2379158,37.2467934 93.0117511,37.8557251 93.0117511,38.5713884 Z M97.0944983,38.5713884 C97.0944983,39.116843 96.9264756,39.5701713 96.5906863,39.945698 C96.2610442,40.3139219 95.8476468,40.4981743 95.3502381,40.4981743 C94.8528293,40.4981743 94.439432,40.3139219 94.1036427,39.945698 C93.7740005,39.5701713 93.6062339,39.116843 93.6062339,38.5713884 C93.6062339,38.0259339 93.7740005,37.5653029 94.1036427,37.1970789 C94.439432,36.8215523 94.8528293,36.6375808 95.3502381,36.6375808 C95.8476468,36.6375808 96.2610442,36.8215523 96.5906863,37.1970789 C96.9264756,37.5653029 97.0944983,38.0259339 97.0944983,38.5713884 Z M101.529427,36.0921262 L98.6417929,36.0921262 L98.6417929,38.6845801 C98.6417929,39.4640015 98.4998957,40.044846 98.2219923,40.4273944 L97.8280609,40.4273944 L97.8280609,42 L98.4286909,42 L98.4286909,41.0506507 L101.413143,41.0506507 L101.413143,42 L102.014029,42 L102.014029,40.4273944 L101.529427,40.4273944 L101.529427,36.0921262 Z M98.9002303,40.4273944 C99.126395,40.0234997 99.2426791,39.449677 99.2426791,38.6989046 L99.2426791,36.7083606 L100.928797,36.7083606 L100.928797,40.4273944 L98.9002303,40.4273944 Z M102.39874,38.5713884 C102.39874,39.2867709 102.624905,39.8889617 103.076978,40.3917236 C103.529308,40.8947664 104.084858,41.1427769 104.737227,41.1427769 C105.389596,41.1427769 105.945146,40.8947664 106.397476,40.3917236 C106.855952,39.8889617 107.082117,39.2867709 107.082117,38.5713884 C107.082117,37.8557251 106.855952,37.2467934 106.397476,36.7507724 C105.945146,36.2477296 105.389596,36 104.737227,36 C104.084858,36 103.529308,36.2477296 103.076978,36.7507724 C102.624905,37.2467934 102.39874,37.8557251 102.39874,38.5713884 Z M106.481231,38.5713884 C106.481231,39.116843 106.313464,39.5701713 105.977419,39.945698 C105.648033,40.3139219 105.234636,40.4981743 104.737227,40.4981743 C104.239818,40.4981743 103.826421,40.3139219 103.490375,39.945698 C103.160989,39.5701713 102.992967,39.116843 102.992967,38.5713884 C102.992967,38.0259339 103.160989,37.5653029 103.490375,37.1970789 C103.826421,36.8215523 104.239818,36.6375808 104.737227,36.6375808 C105.234636,36.6375808 105.648033,36.8215523 105.977419,37.1970789 C106.313464,37.5653029 106.481231,38.0259339 106.481231,38.5713884 Z M107.80441,36.0921262 L107.80441,41.0506507 L108.40504,41.0506507 L108.40504,36.7153825 L110.342936,36.7153825 L110.342936,36.0921262 L107.80441,36.0921262 Z M110.391601,38.5713884 C110.391601,39.2867709 110.61751,39.8889617 111.069839,40.3917236 C111.521913,40.8947664 112.077463,41.1427769 112.729832,41.1427769 C113.382457,41.1427769 113.938008,40.8947664 114.390081,40.3917236 C114.848814,39.8889617 115.074979,39.2867709 115.074979,38.5713884 C115.074979,37.8557251 114.848814,37.2467934 114.390081,36.7507724 C113.938008,36.2477296 113.382457,36 112.729832,36 C112.077463,36 111.521913,36.2477296 111.069839,36.7507724 C110.61751,37.2467934 110.391601,37.8557251 110.391601,38.5713884 Z M114.474092,38.5713884 C114.474092,39.116843 114.30607,39.5701713 113.97028,39.945698 C113.640894,40.3139219 113.227241,40.4981743 112.729832,40.4981743 C112.232423,40.4981743 111.819026,40.3139219 111.483237,39.945698 C111.153851,39.5701713 110.985828,39.116843 110.985828,38.5713884 C110.985828,38.0259339 111.153851,37.5653029 111.483237,37.1970789 C111.819026,36.8215523 112.232423,36.6375808 112.729832,36.6375808 C113.227241,36.6375808 113.640894,36.8215523 113.97028,37.1970789 C114.30607,37.5653029 114.474092,38.0259339 114.474092,38.5713884 Z M117.412185,36.0921262 L117.412185,41.0506507 L118.012815,41.0506507 L118.012815,36.7153825 L120.092864,36.7153825 L120.092864,41.0506507 L120.693751,41.0506507 L120.693751,36.0921262 L117.412185,36.0921262 Z M121.663979,36.0921262 L121.663979,41.0506507 L122.264609,41.0506507 L122.264609,39.2797491 L123.304762,39.2797491 C123.724563,39.2797491 124.067012,39.1238648 124.344659,38.8193989 C124.622562,38.5146522 124.764716,38.1321037 124.764716,37.6857972 C124.764716,37.2324689 124.622562,36.8569422 124.344659,36.5524764 C124.067012,36.2477296 123.724563,36.0921262 123.304762,36.0921262 L121.663979,36.0921262 Z M122.264609,38.6635147 L122.264609,36.7083606 L123.304762,36.7083606 C123.802171,36.7083606 124.170233,37.1192772 124.170233,37.6857972 C124.170233,37.9621758 124.086478,38.1958618 123.924858,38.387136 C123.763495,38.5713884 123.55654,38.6635147 123.304762,38.6635147 L122.264609,38.6635147 Z M126.075088,38.8547889 L127.980712,38.8547889 L127.980712,38.2382736 L126.075088,38.2382736 L126.075088,36.7153825 L128.142075,36.7153825 L128.142075,36.0921262 L125.474202,36.0921262 L125.474202,41.0506507 L128.174348,41.0506507 L128.174348,40.4273944 L126.075088,40.4273944 L126.075088,38.8547889 Z M132.213552,36.0921262 L129.325918,36.0921262 L129.325918,38.6845801 C129.325918,39.4640015 129.184021,40.044846 128.906117,40.4273944 L128.512186,40.4273944 L128.512186,42 L129.112816,42 L129.112816,41.0506507 L132.097268,41.0506507 L132.097268,42 L132.698154,42 L132.698154,40.4273944 L132.213552,40.4273944 L132.213552,36.0921262 Z M129.584355,40.4273944 C129.81052,40.0234997 129.926804,39.449677 129.926804,38.6989046 L129.926804,36.7083606 L131.612922,36.7083606 L131.612922,40.4273944 L129.584355,40.4273944 Z M133.391248,36.0921262 L133.391248,41.0506507 L133.992134,41.0506507 L133.992134,36.7153825 L136.072184,36.7153825 L136.072184,41.0506507 L136.672814,41.0506507 L136.672814,36.0921262 L133.391248,36.0921262 Z M137.643043,36.0921262 L137.643043,41.0506507 L138.243929,41.0506507 L138.243929,39.2797491 L139.283825,39.2797491 C139.703882,39.2797491 140.046075,39.1238648 140.323978,38.8193989 C140.601626,38.5146522 140.743779,38.1321037 140.743779,37.6857972 C140.743779,37.2324689 140.601626,36.8569422 140.323978,36.5524764 C140.046075,36.2477296 139.703882,36.0921262 139.283825,36.0921262 L137.643043,36.0921262 Z M138.243929,38.6635147 L138.243929,36.7083606 L139.283825,36.7083606 C139.781234,36.7083606 140.149552,37.1192772 140.149552,37.6857972 C140.149552,37.9621758 140.065541,38.1958618 139.904178,38.387136 C139.742558,38.5713884 139.53586,38.6635147 139.283825,38.6635147 L138.243929,38.6635147 Z M144.864178,41.0506507 L144.864178,36.0921262 L144.379832,36.0921262 L142.054151,39.7968355 L142.054151,36.0921262 L141.453521,36.0921262 L141.453521,41.0506507 L141.937867,41.0506507 L144.263548,37.3529632 L144.263548,41.0506507 L144.864178,41.0506507 Z M148.628553,38.1958618 L146.432219,38.1958618 L146.432219,36.0921262 L145.831333,36.0921262 L145.831333,41.0506507 L146.432219,41.0506507 L146.432219,38.8193989 L148.628553,38.8193989 L148.628553,41.0506507 L149.222779,41.0506507 L149.222779,36.0921262 L148.628553,36.0921262 L148.628553,38.1958618 Z M153.601359,41.0506507 L153.601359,36.0921262 L153.116757,36.0921262 L150.791333,39.7968355 L150.791333,36.0921262 L150.190703,36.0921262 L150.190703,41.0506507 L150.675049,41.0506507 L153.000473,37.3529632 L153.000473,41.0506507 L153.601359,41.0506507 Z M158.12158,36.0921262 L156.687496,38.7129482 L155.247009,36.0921262 L154.568514,36.0921262 L154.568514,41.0506507 L155.1694,41.0506507 L155.1694,37.1830353 L156.648564,39.8746372 L156.726172,39.8746372 L158.205592,37.1757326 L158.205592,41.0506507 L158.799818,41.0506507 L158.799818,36.0921262 L158.12158,36.0921262 Z M163.384328,41.0506507 L161.69821,36.0921262 L161.019972,36.0921262 L159.333854,41.0506507 L159.973416,41.0506507 L160.341734,39.9383953 L162.376448,39.9383953 L162.744766,41.0506507 L163.384328,41.0506507 Z M161.355761,36.8782885 L162.16975,39.3221608 L160.548433,39.3221608 L161.355761,36.8782885 Z M163.221428,36.0921262 L163.221428,36.7153825 L164.552035,36.7153825 L164.552035,41.0506507 L165.146518,41.0506507 L165.146518,36.7153825 L166.483528,36.7153825 L166.483528,36.0921262 L163.221428,36.0921262 Z M167.678897,38.8547889 L169.584521,38.8547889 L169.584521,38.2382736 L167.678897,38.2382736 L167.678897,36.7153825 L169.74614,36.7153825 L169.74614,36.0921262 L167.078267,36.0921262 L167.078267,41.0506507 L169.778413,41.0506507 L169.778413,40.4273944 L167.678897,40.4273944 L167.678897,38.8547889 Z M170.109592,41.0506507 C170.949449,41.1357551 171.601818,40.7248385 171.601818,38.9042225 L171.601818,36.7153825 L173.384754,36.7153825 L173.384754,41.0506507 L173.985384,41.0506507 L173.985384,36.0921262 L171.001188,36.0921262 L171.001188,38.9042225 C171.001188,40.1510158 170.703818,40.5476079 170.109592,40.4554817 L170.109592,41.0506507 Z M176.191194,36.0921262 C175.803666,36.0921262 175.47428,36.2407078 175.196377,36.5454545 C174.925133,36.8428986 174.789383,37.2041007 174.789383,37.6290609 C174.789383,37.9762195 174.89286,38.2950098 175.093156,38.5713884 C175.293195,38.8474862 175.551632,39.0317386 175.861808,39.1098212 L174.660292,41.0506507 L175.33853,41.0506507 L176.507774,39.1522329 L177.405773,39.1522329 L177.405773,41.0506507 L178,41.0506507 L178,36.0921262 L176.191194,36.0921262 Z M176.191194,38.5570639 C175.971689,38.5570639 175.7842,38.4649377 175.622837,38.287988 C175.461218,38.1037356 175.383866,37.8840932 175.383866,37.6290609 C175.383866,37.3740286 175.461218,37.1546672 175.622837,36.9774366 C175.7842,36.8004868 175.971689,36.7083606 176.191194,36.7083606 L177.405773,36.7083606 L177.405773,38.5570639 L176.191194,38.5570639 Z" id="Shape" fill="#000000" fill-rule="nonzero"></path>
            <path d="M133.96023,13.6326137 C131.482684,13.6326137 129.657476,13.0986061 128.484605,12.0305907 C127.311733,10.9625754 126.725169,9.43843717 126.725169,7.45815004 C126.725169,5.46675513 127.311733,3.89255371 128.484605,2.73552493 C129.657476,1.57850657 131.482684,1 133.96023,1 C137.424376,1 139.742884,2.20707897 140.915755,4.6212343 C139.929156,4.96612294 138.772728,5.48344287 137.446214,6.17319409 C137.128396,5.55019383 136.624048,5.08849101 135.933429,4.78811169 C135.253857,4.48773238 134.557585,4.33754272 133.845127,4.33754272 C132.792755,4.33754272 132.008871,4.6212343 131.493732,5.18861744 C130.978594,5.74489282 130.720896,6.43464403 130.720896,7.25789716 C130.720896,8.14792733 130.995037,8.87660791 131.543062,9.44399106 C132.102135,10.0002664 132.951792,10.278378 134.091777,10.278378 C135.001555,10.278378 135.725061,10.1281884 136.262295,9.82780908 C136.799529,9.51632198 137.194169,9.02679757 137.446214,8.35928798 C138.345202,8.8488124 139.496234,9.39948173 140.899312,10.0113742 C140.351287,11.3575272 139.435856,12.2975945 138.153277,12.8316022 C136.870698,13.3656099 135.473016,13.6326137 133.96023,13.6326137 Z M92.7365688,7.20783395 C92.352977,7.20783395 91.9637327,7.24678939 91.569093,7.32464812 C92.5446444,7.04653651 93.2902462,6.76839883 93.8053846,6.49026114 C94.320523,6.20101568 94.6658328,5.91177021 94.8413138,5.62249868 C95.0167949,5.32211936 95.104407,4.98281068 95.104407,4.60454656 C95.104407,3.95930467 94.8467093,3.37520771 94.3315709,2.8523391 C93.8272234,2.32945486 93.125813,1.92338739 92.2268259,1.63413411 C91.3388866,1.33375479 90.335844,1.18356514 89.2176982,1.18356514 C87.496545,1.18356514 86.0880718,1.51175561 84.9917648,2.16814178 C83.9065057,2.82452534 83.100783,3.75347183 82.5745967,4.95498909 C83.9011102,5.15524197 85.1508026,5.49457672 86.3236738,5.97294121 C86.5867669,5.3610748 86.9539154,4.89381809 87.4253763,4.57117108 C87.907628,4.24855013 88.5324742,4.08722663 89.2999148,4.08722663 C89.8918743,4.08722663 90.3247961,4.17624529 90.5989371,4.35423046 C90.883869,4.52110786 91.0264635,4.74362844 91.0264635,5.02174005 C91.0264635,5.26650225 90.7633703,5.42782576 90.2371841,5.5056845 C89.7109978,5.57243546 89.0314262,5.60581094 88.1982123,5.60581094 L87.4418196,5.60581094 L87.4418196,8.52616538 L88.6915119,8.52616538 C89.4260659,8.52616538 89.9959297,8.54843308 90.4016173,8.59291634 C90.8073048,8.62629182 91.1032846,8.69304278 91.2895566,8.79316922 C91.4758286,8.89329565 91.569093,9.03793142 91.569093,9.22705045 C91.569093,9.58307294 91.3278387,9.85007678 90.8455869,10.028062 C90.3633352,10.2060732 89.738489,10.2950658 88.9710484,10.2950658 C88.2475423,10.2950658 87.6774215,10.1782516 87.2609431,9.94462325 C86.8552555,9.69988712 86.5428324,9.29938137 86.3236738,8.743106 C85.9619207,8.9322511 85.5397899,9.10468238 85.0575381,9.26042593 C84.5860773,9.40506169 84.010561,9.56080524 83.3309894,9.72768264 L82.4101635,9.96131099 C83.4296494,12.4088548 85.6713364,13.6326137 89.1354816,13.6326137 C90.3304485,13.6326137 91.4157077,13.4768702 92.3912591,13.165357 C93.3668105,12.8427361 94.1396465,12.3754794 94.7097673,11.7635869 C95.279888,11.1405866 95.5648199,10.3896383 95.5648199,9.51074202 C95.5648199,9.1324779 95.4715555,8.77092759 95.2852835,8.42603894 C95.0990115,8.07004252 94.7919839,7.78079706 94.3644575,7.55827648 C93.9479791,7.32464812 93.4053495,7.20783395 92.7365688,7.20783395 Z M59.9719679,5.90619025 C61.4737056,5.90619025 62.6522292,6.06751376 63.5072818,6.3901347 C64.3623345,6.70164787 64.9596895,7.1355291 65.2996038,7.6917784 C65.6395181,8.24805377 65.8093467,8.9322511 65.8093467,9.74437038 C65.8093467,10.923646 65.3818204,11.8359178 64.5267677,12.4811597 C63.6717151,13.1264276 62.1535341,13.4490486 59.9719679,13.4490486 L57.0450569,13.4490486 L57.0450569,13.4657363 L53,13.4657363 C53.0876121,11.307464 53.1315466,9.28824752 53.1315466,7.40808682 C53.1315466,5.5279522 53.0876121,3.5087357 53,1.35044253 L65.1187273,1.35044253 L65.1187273,4.70467299 L57.0450569,4.70467299 L57.0450569,5.90619025 L59.9719679,5.90619025 Z M59.3142351,10.5620696 C60.0706278,10.5620696 60.6407486,10.5342741 61.0243404,10.4786309 C61.4189801,10.4230138 61.6931211,10.3340212 61.8465065,10.2116271 C62.0109397,10.089259 62.0931563,9.90569389 62.0931563,9.66093168 C62.0931563,9.41619555 62.0109397,9.22705045 61.8465065,9.09354853 C61.6820733,8.96004661 61.4025368,8.86550014 61.0078971,8.80985695 C60.6132574,8.75423985 60.0487891,8.72641826 59.3142351,8.72641826 L57.0450569,8.72641826 L57.0450569,10.5620696 L59.3142351,10.5620696 Z M71.1475166,1.36713027 L70.8679801,10.728947 L74.863707,1.36713027 L80.914849,1.36713027 C80.8380279,3.24728575 80.7997458,5.26092229 80.7997458,7.40808682 C80.7997458,9.5663852 80.8380279,11.5856017 80.914849,13.4657363 L76.6889156,13.4657363 L76.9848954,4.35423046 L73.0056118,13.4657363 L67.1189031,13.4657363 C67.2065151,11.307464 67.2504496,9.28824752 67.2504496,7.40808682 C67.2504496,5.53905998 67.2065151,3.52542344 67.1189031,1.36713027 L71.1475166,1.36713027 Z M110.821909,1.35044253 C110.745088,3.23059801 110.706806,5.24981451 110.706806,7.40808682 C110.706806,9.5663852 110.745088,11.5856017 110.821909,13.4657363 L106.957729,13.4657363 L106.957729,8.92667113 L100.906587,8.92667113 L100.906587,13.4657363 L97.0424065,13.4657363 C97.1300185,11.307464 97.173953,9.28824752 97.173953,7.40808682 C97.173953,5.5279522 97.1300185,3.5087357 97.0424065,1.35044253 L100.906587,1.35044253 L100.906587,5.88950251 L106.957729,5.88950251 L106.957729,1.35044253 L110.821909,1.35044253 Z M125.242187,10.2283148 C123.367649,10.3284413 120.347473,10.3896383 116.181918,10.41188 L116.181918,8.67635504 C116.708104,8.66524726 117.486336,8.6596673 118.516869,8.6596673 C120.259861,8.6596673 122.063231,8.69304278 123.926722,8.75979374 L123.926722,5.88950251 C122.063231,5.95625347 120.259861,5.98962895 118.516869,5.98962895 C117.486336,5.98962895 116.708104,5.98407506 116.181918,5.97294121 L116.181918,4.3709182 L125.077754,4.3709182 L125.077754,1.35044253 L112.301294,1.35044253 C112.388906,3.5087357 112.432841,5.5279522 112.432841,7.40808682 C112.432841,9.28824752 112.388906,11.307464 112.301294,13.4657363 L125.077754,13.4657363 C125.077754,12.7314758 125.08315,12.1251633 125.094198,11.6467727 C125.116036,11.1572744 125.165366,10.6844638 125.242187,10.2283148 Z M69.6570837,31.1964597 L68.3745047,19.0811607 L62.5535693,19.0811607 L61.3038769,26.9744616 L59.873308,19.0811607 L54.282579,19.0811607 L53,31.1964597 L57.25882,31.1964597 L57.5054698,22.6189615 L59.1826885,31.1964597 L63.4908385,31.1964597 L65.1351706,22.5522106 L65.3982637,31.1964597 L69.6570837,31.1964597 Z M78.4506633,31.3633371 C75.9402307,31.3633371 74.0931833,30.8126417 72.9092642,29.7112509 C71.7253452,28.598648 71.1333856,27.0412126 71.1333856,25.0386838 C71.1333856,23.0584227 71.7196928,21.5120168 72.8928209,20.3994922 C74.07674,19.2869675 75.9291828,18.7307182 78.4506633,18.7307182 C80.9829346,18.7307182 82.8353775,19.2869675 84.0085056,20.3994922 C85.1924247,21.5120168 85.7843843,23.0584227 85.7843843,25.0386838 C85.7843843,27.0524246 85.1978202,28.6098601 84.024949,29.7112509 C82.8518208,30.8126417 80.9937256,31.3633371 78.4506633,31.3633371 Z M78.4506633,27.9590382 C79.667469,27.9590382 80.5443605,27.7254099 81.0815946,27.2581532 C81.6185718,26.7796844 81.8873173,26.0399482 81.8873173,25.0386838 C81.8873173,24.059661 81.6185718,23.3309805 81.0815946,22.8525899 C80.5443605,22.3741993 79.667469,22.1350171 78.4506633,22.1350171 C77.2446485,22.1350171 76.3731525,22.3741993 75.8361753,22.8525899 C75.2989412,23.3309805 75.0304526,24.059661 75.0304526,25.0386838 C75.0304526,26.0288404 75.2989412,26.7629966 75.8361753,27.2414654 C76.3731525,27.7199342 77.2446485,27.9590382 78.4506633,27.9590382 Z M96.6649809,31.1964597 L100.825141,31.1964597 L100.825141,19.0978485 L88.9695068,19.0811607 L88.9859502,22.4854596 C88.9859502,24.4212374 88.9366202,25.661684 88.8379603,26.2068256 C88.7064137,26.8855472 88.5144893,27.380443 88.2624441,27.6920344 C88.0211897,27.9924137 87.6869278,28.1871909 87.2594015,28.2761053 L87.2594015,31.5302145 C88.8597991,31.5302145 90.104096,31.1630843 90.9920353,30.4288237 C91.8907655,29.6945632 92.4498384,28.7211986 92.669254,27.5084693 C92.7897527,26.8409597 92.8665738,26.1901378 92.8994605,25.5560037 C92.943138,24.9107618 92.9652337,24.1653674 92.9652337,23.3198466 L92.9816771,22.3519577 L96.6649809,22.3519577 L96.6649809,31.1964597 Z M109.626685,31.3633371 C107.116253,31.3633371 105.269205,30.8126417 104.085286,29.7112509 C102.901367,28.598648 102.309408,27.0412126 102.309408,25.0386838 C102.309408,23.0584227 102.895972,21.5120168 104.068843,20.3994922 C105.252762,19.2869675 107.105462,18.7307182 109.626685,18.7307182 C112.158957,18.7307182 114.011656,19.2869675 115.184528,20.3994922 C116.368447,21.5120168 116.960406,23.0584227 116.960406,25.0386838 C116.960406,27.0524246 116.373842,28.6098601 115.200971,29.7112509 C114.0281,30.8126417 112.170004,31.3633371 109.626685,31.3633371 Z M109.626685,27.9590382 C110.843491,27.9590382 111.720382,27.7254099 112.257617,27.2581532 C112.794851,26.7796844 113.063339,26.0399482 113.063339,25.0386838 C113.063339,24.059661 112.794851,23.3309805 112.257617,22.8525899 C111.720382,22.3741993 110.843491,22.1350171 109.626685,22.1350171 C108.420927,22.1350171 107.549431,22.3741993 107.012197,22.8525899 C106.474963,23.3309805 106.206475,24.059661 106.206475,25.0386838 C106.206475,26.0288404 106.474963,26.7629966 107.012197,27.2414654 C107.549431,27.7199342 108.420927,27.9590382 109.626685,27.9590382 Z M132.905546,28.2260421 L132.231369,28.2260421 L132.231369,19.0978485 L120.375735,19.0811607 L120.392179,22.4854596 C120.392179,24.4212374 120.342849,25.661684 120.244189,26.2068256 C120.12369,26.8631231 119.937161,27.3415919 119.685116,27.6419712 C119.433071,27.9423505 119.071317,28.1371277 118.599857,28.2260421 L117.777691,28.2260421 L117.777691,34 L121.674758,34 L121.674758,31.5302145 L129.008479,31.5302145 L129.008479,33.9499368 L132.905546,33.9499368 L132.905546,28.2260421 Z M123.894606,28.2260421 C123.949331,28.0591647 124.009709,27.8200607 124.075482,27.5084693 C124.195981,26.8409597 124.272802,26.1901378 124.305689,25.5560037 C124.349623,24.9107618 124.371462,24.1653674 124.371462,23.3198466 L124.387906,22.3519577 L128.071209,22.3519577 L128.071209,28.2260421 L123.894606,28.2260421 Z M151.897067,24.5213639 C151.886019,25.1888734 151.880624,26.2124055 151.880624,27.591908 C151.880624,29.2494699 151.891415,30.4509871 151.91351,31.1964597 L148.032887,31.1964597 L148.04933,29.3107452 C148.071169,27.2414654 148.082217,25.6450224 148.082217,24.5213639 C148.082217,23.4533485 148.071169,21.9403442 148.04933,19.9822987 L148.039824,18.9414009 L151.900407,18.9414009 C151.898095,19.2025119 151.897067,19.5049772 151.897067,19.8487968 L151.897067,24.5213639 Z M141.356898,22.0182029 C142.858636,22.0182029 144.03716,22.2129019 144.892212,22.6022738 C145.747265,22.9805379 146.34462,23.5145456 146.684534,24.2042968 C147.024192,24.8829402 147.194277,25.7117473 147.194277,26.69077 C147.194277,28.1147036 146.766751,29.2218308 145.911698,30.0116302 C145.056646,30.7904783 143.538208,31.179772 141.356898,31.179772 L138.429987,31.179772 L138.429987,31.1964597 L134.384931,31.1964597 C134.472543,29.0382657 134.516477,27.0190491 134.516477,25.1388102 C134.516477,23.2586756 134.472543,21.2394591 134.384931,19.0811607 L138.429987,19.0811607 L138.429987,22.0182029 L141.356898,22.0182029 Z M140.699166,27.8755995 C141.466349,27.8755995 142.041866,27.8422241 142.425714,27.7754731 C142.820354,27.6975101 143.094238,27.5697446 143.24788,27.3916551 C143.401266,27.2135656 143.478087,26.9410861 143.478087,26.5739558 C143.478087,26.2068256 143.39587,25.928714 143.231437,25.7395689 C143.067004,25.5504498 142.787467,25.4225018 142.392828,25.3557508 C142.008979,25.2778921 141.444511,25.2389367 140.699166,25.2389367 L138.429987,25.2389367 L138.429987,27.8755995 L140.699166,27.8755995 Z M167,31.1964597 L162.19855,24.9886206 L166.835567,19.0811607 L162.083447,19.0811607 L159.880042,22.0849539 L157.660194,19.0811607 L152.908074,19.0811607 L157.545091,24.9886206 L152.743641,31.1964597 L157.495761,31.1964597 L159.880042,27.9256628 L162.24788,31.1964597 L167,31.1964597 Z" id="Shape" fill="#000000"></path>
            <path d="M4.53503037,0.528669374 L45.4647896,0.528669374 L45.4647896,23.2819608 L46,23.7049116 L46,0.528669374 L46,0 L45.4647896,0 L4.53503037,0 L4,0 L4,0.528669374 L4,8.68448024 C4.15179298,8.62923209 4.33326557,8.58554692 4.53503037,8.57372981 L4.53503037,0.528669374 Z M4.53503037,18.5152678 L4,18.0177041 L4,41.4711527 L4,42 L4.53503037,42 L45.4647896,42 L46,42 L46,41.4711527 L46,33.2647443 L45.4647896,33.3610601 L45.4647896,41.4711527 L4.53503037,41.4711527 L4.53503037,18.5152678 Z" id="Shape" fill="#000000"></path>
        </g>
    </g>
</svg>