<?xml version="1.0" encoding="UTF-8"?>
<svg width="16px" height="12px" viewBox="0 0 16 12" version="1.1" xmlns="http://www.w3.org/2000/svg" xmlns:xlink="http://www.w3.org/1999/xlink">
    <title>8111415_switchcurved_switch_next_forward_arrow_icon</title>
    <g id="Page-1" stroke="none" stroke-width="1" fill="none" fill-rule="evenodd">
        <g id="Биржа-проектов" transform="translate(-836, -218)" fill="#EA523D" fill-rule="nonzero">
            <g id="8111415_switchcurved_switch_next_forward_arrow_icon" transform="translate(836, 218)">
                <path d="M13.6327928,7.2753102 L16,9.63783492 L13.6327928,12 L12.876036,11.2447402 L13.9484685,10.1719115 L12.3628829,10.1719115 C11.5172717,10.1741911 10.7058845,9.83877838 10.1095495,9.24042438 L4.37261261,3.51483546 C3.97688807,3.1176389 3.43835367,2.89501012 2.87711712,2.89660133 L0,2.89660133 L0,1.82807668 L2.8781982,1.82807668 C3.7238853,1.82578361 4.5353245,2.16134738 5.13153153,2.75993526 L10.8684685,8.48444524 C11.2641473,8.88170981 11.8027115,9.10435091 12.363964,9.10267937 L13.9495495,9.10267937 L12.876036,8.03164898 L13.6327928,7.2753102 Z M4.37153153,8.48552419 C3.9735493,8.87987504 3.43577438,9.10164155 2.87495495,9.10267937 L0,9.10267937 L0,10.1719115 L2.87603604,10.1719115 C3.72066898,10.1701639 4.53051538,9.83595857 5.12972973,9.24186297 L7.06486486,7.31738896 L6.30810811,6.55961158 L4.37153153,8.48552419 Z M10.8695495,3.51447581 C11.2675098,3.12009192 11.8052989,2.89831953 12.3661261,2.89732063 L13.9484685,2.89732063 L12.874955,3.96835102 L13.6317117,4.72361086 L16,2.36252473 L13.6327928,0 L12.876036,0.755259845 L13.9484685,1.82808847 L12.3661261,1.82808847 C11.5209018,1.83005574 10.7105607,2.16463921 10.110991,2.75921597 L8.18234234,4.69052329 L8.94162162,5.44578313 L10.8695495,3.51447581 Z" id="Shape"></path>
            </g>
        </g>
    </g>
</svg>